<?xml version="1.0" encoding="UTF-8"?>
<svg width="326px" height="145px" viewBox="0 0 326 145" version="1.1"
    xmlns="http://www.w3.org/2000/svg" xmlns:xlink="http://www.w3.org/1999/xlink">
    <title>hatchback-L</title>
    <g id="Page-1" stroke="none" stroke-width="1" fill="none" fill-rule="evenodd">
        <g id="hatchback-L" transform="translate(2.000000, 2.000000)">
            <path
                d="M23.3382327,128 L28.4009291,123.577951 L81.520576,117.496248 L88.8342906,118.477693 L88.8342906,127.184846 L246.957846,125.080443 L247.280064,116.369378 L303.668294,117.496248 L311.996998,114.234978 C312.219973,95.5607712 299.992426,80.2208715 285.462953,77.460433 C267.43483,74.0348285 246.332098,90.0633706 245.507862,114.234978 C244.684272,117.151927 243.860682,120.068223 243.037092,122.985171 L92.4547374,124.377454 C95.3643701,107.490718 87.7497033,90.7004952 73.6578011,82.5685158 C58.2950693,73.7035497 38.1905704,76.8337424 27.3659634,88.9808457 C19.2757023,98.0597083 14.7917102,113.944783 20.7063523,124.413321 C21.604053,126.001894 22.5874636,127.193323 23.3382327,128"
                id="Fill-125" fill="#A3A29C" fill-rule="nonzero"></path>
            <path
                d="M23.3382327,128 L28.4009291,123.577951 L81.520576,117.496248 L88.8342906,118.477693 L88.8342906,127.184846 L246.957846,125.080443 L247.280064,116.369378 L303.668294,117.496248 L311.996998,114.234978 C312.219973,95.5607712 299.992426,80.2208715 285.462953,77.460433 C267.43483,74.0348285 246.332098,90.0633706 245.507862,114.234978 C244.684272,117.151927 243.860682,120.068223 243.037092,122.985171 L92.4547374,124.377454 C95.3643701,107.490718 87.7497033,90.7004952 73.6578011,82.5685158 C58.2950693,73.7035497 38.1905704,76.8337424 27.3659634,88.9808457 C19.2757023,98.0597083 14.7917102,113.944783 20.7063523,124.413321 C21.604053,126.001894 22.5874636,127.193323 23.3382327,128 Z"
                id="Stroke-126" stroke="#2C2C2B" stroke-width="3" stroke-linejoin="round"></path>
            <path
                d="M113.919664,17.2865371 C130.107312,7.58114755 148.428944,1.99538133 167.275062,1.01473327 C186.542057,0.012836761 200.92457,-0.757258501 227.990647,1.28001692 C243.339116,2.43515982 264.217538,4.5593607 289.02414,8.79617242 C291.056445,9.14323041 292.575848,10.8617791 292.664013,12.9228786 L292.666586,12.9769655 C292.716781,14.2711891 292.418822,15.3059242 292.183931,15.9285681 C296.040675,20.3849471 299.972714,25.1574772 303.928565,30.2551731 C306.800692,33.9575541 309.510002,37.6039167 312.062932,41.1762313 C313.256702,42.847776 313.903463,44.8457738 313.903463,46.8997905 L313.903463,69.7199796 C313.903463,71.1822591 314.263201,72.6220025 314.951791,73.911719 L319.37421,82.1992575 C320.184429,83.7181995 320.665797,85.3910318 320.786783,87.1082928 L321.987632,104.198484 C322.068718,105.345256 321.750165,106.491385 321.059646,107.409575 C320.268732,108.460407 319.289263,109.601385 318.086482,110.741718 C315.869481,112.842739 313.66342,114.212298 311.972836,115.087991 C312.418167,112.012118 312.783056,106.318177 310.14904,100.33191 C305.087583,88.8274854 292.172347,83.5720361 281.726378,83.4831788 C268.349076,83.3704976 259.533842,91.7346594 257.593565,93.6785704 C245.992437,105.297608 247.244127,120.646714 247.457783,122.8147 C194.633306,123.297619 141.809474,123.780538 88.9856418,124.263457 C89.221178,122.586118 91.3944183,104.928014 78.0454329,92.5517589 C76.3291074,90.9607007 64.5001675,80.3654521 48.4425154,83.6982389 C33.7710521,86.7432058 27.071783,99.0267404 26.0794417,100.922359 C19.7231805,113.059731 23.113358,124.718689 23.8270459,127 C16.914121,126.203505 11.4124831,125.186155 8.06027447,123.458592 C4.94617623,121.854012 2.534182,119.956461 0.749640892,118.26882 C-0.224037682,117.34741 -0.25042289,115.806575 0.677564222,114.838161 L2.75105553,112.673395 C1.71688405,107.846778 1.31402695,103.792832 1.14220132,100.922359 C0.71488964,93.7918955 0.368664212,88.0161811 3.23371181,81.9275348 C4.93587956,78.3095036 7.19342381,75.8092697 8.73534969,74.3315368 C8.63688782,73.1113606 8.56159344,71.3631929 8.70381616,69.2641039 C8.85440491,67.032373 9.08929763,65.9744579 9.39691055,64.8798408 C10.1852491,62.0744017 17.029315,56.9992422 28.1709523,52.3084864 C32.466593,50.4997927 36.5099653,48.8076436 42.5431687,46.7813144 C49.2816937,44.5186766 54.4718573,43.1922584 58.0956406,42.2740678 C63.752372,40.8414073 71.0733024,39.1930429 79.7611152,37.7668214 L113.919664,17.2865371 Z"
                id="Fill-127" fill="#FFFFFF" fill-rule="nonzero"></path>
            <path
                d="M79.7611152,37.7668214 L113.919664,17.2865371 C130.107312,7.58114755 148.428944,1.99538133 167.275062,1.01473327 C186.542057,0.012836761 200.92457,-0.757258501 227.990647,1.28001692 C243.339116,2.43515982 264.217538,4.5593607 289.02414,8.79617242 C291.056445,9.14323041 292.575848,10.8617791 292.664013,12.9228786 L292.666586,12.9769655 C292.716781,14.2711891 292.418822,15.3059242 292.183931,15.9285681 C296.040675,20.3849471 299.972714,25.1574772 303.928565,30.2551731 C306.800692,33.9575541 309.510002,37.6039167 312.062932,41.1762313 C313.256702,42.847776 313.903463,44.8457738 313.903463,46.8997905 L313.903463,69.7199796 C313.903463,71.1822591 314.263201,72.6220025 314.951791,73.911719 L319.37421,82.1992575 C320.184429,83.7181995 320.665797,85.3910318 320.786783,87.1082928 L321.987632,104.198484 C322.068718,105.345256 321.750165,106.491385 321.059646,107.409575 C320.268732,108.460407 319.289263,109.601385 318.086482,110.741718 C315.869481,112.842739 313.66342,114.212298 311.972836,115.087991 C312.418167,112.012118 312.783056,106.318177 310.14904,100.33191 C305.087583,88.8274854 292.172347,83.5720361 281.726378,83.4831788 C268.349076,83.3704976 259.533842,91.7346594 257.593565,93.6785704 C245.992437,105.297608 247.244127,120.646714 247.457783,122.8147 C194.633306,123.297619 141.809474,123.780538 88.9856418,124.263457 C89.221178,122.586118 91.3944183,104.928014 78.0454329,92.5517589 C76.3291074,90.9607007 64.5001675,80.3654521 48.4425154,83.6982389 C33.7710521,86.7432058 27.071783,99.0267404 26.0794417,100.922359 C19.7231805,113.059731 23.113358,124.718689 23.8270459,127 C16.914121,126.203505 11.4124831,125.186155 8.06027447,123.458592 C4.94617623,121.854012 2.534182,119.956461 0.749640892,118.26882 C-0.224037682,117.34741 -0.25042289,115.806575 0.677564222,114.838161 L2.75105553,112.673395 C1.71688405,107.846778 1.31402695,103.792832 1.14220132,100.922359 C0.71488964,93.7918955 0.368664212,88.0161811 3.23371181,81.9275348 C4.93587956,78.3095036 7.19342381,75.8092697 8.73534969,74.3315368 C8.63688782,73.1113606 8.56159344,71.3631929 8.70381616,69.2641039 C8.85440491,67.032373 9.08929763,65.9744579 9.39691055,64.8798408 C10.1852491,62.0744017 17.029315,56.9992422 28.1709523,52.3084864 C32.466593,50.4997927 36.5099653,48.8076436 42.5431687,46.7813144 C49.2816937,44.5186766 54.4718573,43.1922584 58.0956406,42.2740678 C63.752372,40.8414073 71.0733024,39.1930429 79.7611152,37.7668214 Z"
                id="Stroke-128" stroke="#2C2C2B" stroke-width="3" stroke-linejoin="round"></path>
            <path
                d="M82.4921609,53.0455462 C83.2609489,53.8698238 84.271834,53.9350498 86.4127216,54.2867588 C86.5022204,54.3014667 86.5949386,54.316814 86.6902322,54.3328006 C90.6899896,55.0068029 94.7599294,55.1698678 98.8015386,54.8232747 C133.228941,51.8746751 241.447745,42.127223 253.567423,41.0516335 C255.02065,40.9224603 256.457782,40.655801 257.859501,40.2554924 C264.239666,38.4310824 270.619834,36.6066725 277,34.7829019 C274.759311,31.5446222 272.09946,28.0844461 268.951552,24.5513705 C265.743118,20.9511504 262.517298,17.8254175 259.418968,15.1242932 C255.813263,11.9812947 251.366655,9.93818571 246.619357,9.25139416 C229.084685,6.71461384 214.097828,6.03677488 202.632329,6.00671976 C184.02689,5.95748051 169.014278,6.03229859 150.15644,11.6020885 C138.564741,15.0258147 130.301881,19.1126721 122.630743,22.9526937 C111.236715,28.6554936 96.9162697,37.0594177 81.6847405,49.434455 C79.7647026,50.994124 82.4921609,53.0455462 82.4921609,53.0455462 Z"
                id="Stroke-129" stroke="#2C2C2B" stroke-linejoin="round"></path>
            <path
                d="M40,86.5803618 C37.6718216,87.8775913 36.0839962,88.8490834 35.2365238,89.4948377 C32.0678741,91.9092755 30.3293928,94.1415313 29.0182784,95.8846035 C24.0063519,102.547752 21.946337,110.854309 22.0304677,116.593943 C22.0766948,119.747677 22.867089,123.48845 23.5892791,127 C20.4415054,126.511658 5.05437652,125.45643 0,116.593943 C0,115.815518 0.90786771,114.482685 2.72360312,112.595446 C-1.24910848,92.7824245 0.725750754,79.9322679 8.64818082,74.0449763 C9.1460087,73.7976469 9.44297063,73.6318782 9.53906666,73.5476702 L30.3747224,69 L40,86.5803618 Z"
                id="eksedam-LF" stroke="#000000" stroke-width="1.5" fill="#8A5E5E"
                fill-rule="nonzero"></path>
            <path
                d="M254.604467,12 L292.372556,16.0462022 L292.991374,16.69625 L291.826651,20.0092585 C296.406362,24.4500474 299.744228,27.8668476 301.840248,30.2596591 C303.936269,32.6524707 306.558268,36.1096181 309.706243,40.6311011 L302.59396,41.3731723 C304.377257,54.0084116 307.17927,62.3560529 311,66.4160967 C310.008576,68.7790016 306.278423,76.2026443 299.80954,88.6870244 C296.383794,86.9353905 293.9048,85.8062054 292.372556,85.2994694 C288.507402,84.0212037 285.131764,83.815738 282.990063,83.6708474 C274.301684,83.0830602 266.977545,86.3762828 262.324225,90.2322129 C259.898819,92.2420016 257.005275,94.5732604 254.604467,97.79352 C253.01024,99.9318925 251.850217,102.801237 250.402438,105 C247.134694,105 244.000548,105 241,105 C262.87047,78.5210548 275.864673,59.3242887 279.982611,47.4097016 C279.982611,46.0215871 282.993861,43.0250612 276.10638,33.3400769 C274.756558,31.6608791 274.013637,30.1684416 271.476437,27.4760236 C269.954534,25.8610153 268.533536,23.5786197 264.585359,20.0092585 C262.965648,18.5449526 259.638683,15.8751998 254.604467,12 Z"
                id="rfrf-LB" stroke="#000000" stroke-width="1.5" fill="#776161"
                fill-rule="nonzero"></path>
            <path
                d="M277.118484,35.1120259 C278.024132,36.4358686 278.570658,38.2548028 279.470512,39.9337285 C279.482741,39.956886 279.494972,39.9800437 279.507844,40.0038445 C281.530265,43.7939712 281.477483,48.3502283 279.467293,52.1474307 C276.557893,57.6428571 272.751855,64.1932404 267.884403,71.2929737 C262.040497,79.8156123 256.955482,85.7909156 251.470748,92.199137 C247.574596,96.7508913 242.598362,102.324796 236.548482,108.545827 C232.405804,112.805538 226.742128,115.2596 220.799097,115.379248 C210.532517,115.58638 200.265937,115.792868 190,116 L191.432172,47.3158555 C193.17893,20.5888473 194.498538,7.17373744 195.390995,7.07052608 C197.587411,6.81651402 197.810552,7.2991976 199.874695,7.71507918 C199.874695,8.99316201 199.272512,44.4546059 199.272512,44.4546059 C203.454631,44.4546059 210.600548,43.4100582 218.23837,42.6828572 C231.243891,41.4445945 245.674799,40.2056751 249.321598,39.9337285 C258.538097,39.2464417 260.222544,38.1682937 266.131208,36.8388137 C268.103271,36.395089 272.214854,34.1564237 275.921601,33.660928 C276.4444,33.5910432 276.843362,34.0747425 277.118484,35.1120259 Z"
                id="door-LB" stroke="#2C2C2B" fill="#F34040" fill-rule="nonzero"></path>
            <path
                d="M167.360787,9.98010556 C184.777821,8.42527514 193.990892,7.43190662 195,7 L191.299829,47.871163 L191.299829,53.9422468 L191.299829,68.3742589 C190.394018,75.91595 190.145969,82.0955595 190.06135,86.3631536 C189.997885,89.5393819 190.038913,91.1452621 190.06135,92.3138928 C190.138917,96.4424102 189.52026,99.3490465 189.873481,102.883269 C190.217728,106.338294 189.741423,108.410088 189.873481,111.791068 C189.952972,113.840518 189.916432,115.522316 189.873481,116.62012 C160.322756,117.079846 130.772672,117.539572 101.222588,118 C98.5615673,118.040505 96.2037659,116.265346 95.5062977,113.685988 C93.2619633,105.384526 92.0266497,98.0990968 91.3112321,92.3138928 C90.4002925,84.9524862 89.1444652,74.2345665 90.8304405,60.4421507 C91.4997024,54.967079 91.6599661,52.9313655 91.3112321,54.3350098"
                id="door-LF" stroke="#2C2C2B" stroke-width="1.695" fill="#E22323"
                fill-rule="nonzero" stroke-linejoin="round"></path>
            <path
                d="M314.786263,70 C312.571713,67.9071587 309.717886,64.7054672 307.357526,60.2150772 C303.327659,52.5495202 302.937979,45.3135294 303.006746,41.5619416 C304.247097,41.3044606 305.710941,41.0916183 307.357526,41.0230429 C309.447276,40.9363534 311.280423,41.105204 312.769736,41.3465115 C313.195709,41.8672958 313.791052,42.6973161 314.255229,43.8262213 C315.025035,45.698457 315.005298,47.3462057 314.998294,48.0313119 C314.96773,51.0039876 314.949265,59.0932885 314.786263,70"
                id="light-spot-LB" fill="#C3BA50" fill-rule="nonzero"></path>
            <path
                d="M82,116.499677 C82,131.135371 69.9121271,143 55.0003216,143 C40.0885158,143 28,131.135371 28,116.499677 C28,101.863983 40.0885158,90 55.0003216,90 C69.9121271,90 82,101.863983 82,116.499677"
                id="wheel-LF" fill="#FFFFFF" fill-rule="nonzero"></path>
            <path
                d="M76,116.999679 C76,128.045774 66.8223062,137 55.5003215,137 C44.1783368,137 35,128.045774 35,116.999679 C35,105.954226 44.1783368,97 55.5003215,97 C66.8223062,97 76,105.954226 76,116.999679 Z"
                id="Stroke-149" stroke="#2C2C2B" stroke-width="1.616"
                stroke-linejoin="round"></path>
            <path
                d="M307,116.5 C307,131.135515 294.911629,143 280,143 C265.088371,143 253,131.135515 253,116.5 C253,101.864485 265.088371,90 280,90 C294.911629,90 307,101.864485 307,116.5"
                id="wheel-LB" fill="#E67373" fill-rule="nonzero"></path>
            <path
                d="M301,117.000321 C301,128.045774 291.821807,137 280.5,137 C269.178193,137 260,128.045774 260,117.000321 C260,105.954226 269.178193,97 280.5,97 C291.821807,97 301,105.954226 301,117.000321 Z"
                id="Stroke-164" stroke="#2C2C2B" stroke-width="1.616"
                stroke-linejoin="round"></path>
            <path
                d="M191,8 C177.935397,8.21717657 165.896149,9.21098161 151.562366,13.4294141 C139.931206,16.8528025 131.696932,20.9594717 124.432189,24.5828911 C110.181179,31.690661 96.5782332,40.4564658 84,50.6351886 C84.1289714,50.8631605 84.4395291,51.2136911 84.7122297,51.4238825 L84.8399177,51.5191353 L84.9489979,51.6353439 C85.1761414,51.8785561 85.6875353,51.9776192 87.0908203,52.1992408 L88.1014164,52.3624406 C90.6198863,52.7853634 93.1941795,53 95.7556398,53 C97.0697359,53 98.3998729,52.9428483 99.7114021,52.8310849 C116.660544,51.3845111 152.077609,48.2437062 184.559133,45.3492887 L191,8"
                id="glass-LF" fill="#A3A29C" fill-rule="nonzero"></path>
            <path
                d="M253,13.0312225 C251.114007,12.1917069 249.119655,11.5987624 247.054996,11.2947886 C232.497894,9.15066464 217.760193,8.04305207 203.248886,8.00391382 C202.353621,8.00195691 201.478995,8.00130461 200.599209,8 C200.399258,20.3331159 200.199951,32.6668841 200,45 C212.746574,43.8375939 224.412122,42.772381 233.513132,41.9413455 C242.50836,41.1194422 249.326055,40.4964916 252.756833,40.1853425 L253,13.0312225"
                id="glass-LB" fill="#A3A29C" fill-rule="nonzero"></path>
            <path
                d="M267.570144,26.8321712 C264.665467,23.6278468 261.520555,20.5708839 258.222766,17.7459366 C256.986897,16.6874436 255.648895,15.7700411 254.231886,15 L254,40 C255.136305,39.8695695 256.265544,39.6538576 257.364594,39.3447125 L274,34.6699108 C271.989465,31.9572087 269.833118,29.3285341 267.570144,26.8321712"
                id="shoraa-LB" fill="#A3A29C" fill-rule="nonzero"></path>
            <path
                d="M293.422204,16 L292,20.0299701 C295.033406,22.9599195 298.236213,26.3167235 301.48137,30.1313318 C304.685439,33.8995151 307.461585,37.5625967 309.855314,41 C310.570209,40.6466522 311.285105,40.2933044 312,39.9399566 C309.21943,35.9009594 306.175912,31.7194625 302.85048,27.4451151 C299.669163,23.3558237 296.511234,19.5431497 293.422204,16"
                id="Fill-182" fill="#A3A29C" fill-rule="nonzero"></path>
            <path
                d="M293.422204,16 L292,20.0299701 C295.033406,22.9599195 298.236213,26.3167235 301.48137,30.1313318 C304.685439,33.8995151 307.461585,37.5625967 309.855314,41 C310.570209,40.6466522 311.285105,40.2933044 312,39.9399566 C309.21943,35.9009594 306.175912,31.7194625 302.85048,27.4451151 C299.669163,23.3558237 296.511234,19.5431497 293.422204,16 Z"
                id="Stroke-183" stroke="#2C2C2B" stroke-width="1.695"
                stroke-linejoin="round"></path>
            <path
                d="M31,69.639008 L40.6818256,86.6458445 C46.6200548,84.4310681 50.9631547,83.2422836 53.7111251,83.0794906 C59.7191729,82.7235668 64.8808764,83.9289454 69.9266673,86.6458445 C75.1928484,89.4814122 80.2898751,93.9627096 83.9944555,99.9989103 C86.1259221,103.471898 87.1383282,107.520802 88.8159141,112 C88.8159141,112 90.8772759,111.711729 95,111.135188 C92.2768055,98.3849711 90.6844527,87.9929803 90.2229419,79.9592159 C89.761431,71.9254512 90.2925111,63.8433055 91.816182,55.7127789 C85.3130454,55.7896611 81.7035179,54.2753144 80.9876,51.1697385 C80.2716821,48.0641629 78.9282225,45.67425 76.9572216,44 C68.081958,45.3889352 63.4295508,46.2260603 63,46.5113751 C62.7721353,46.6627266 59.1640123,48.4192939 53.7111251,52.9309591 C50.5405365,55.5542731 47.5597811,59.5932768 42.1294078,63.5232728 C40.2387428,64.891559 36.5289404,66.9301372 31,69.639008 Z"
                id="rfrf-LF" stroke="#000000" stroke-width="1.5" fill="#EAA5A5"
                fill-rule="nonzero"></path>
            <path
                d="M101.326674,117.80097 C179.494767,116.56993 218.750609,115.868687 219.094201,115.697243 C226.648079,116.495406 233.818198,112.929658 240.604558,105 C246.868186,105 250,105 250,105 C248.226719,109.268086 247.346979,115.127705 247.360779,122.578857 C141.951339,123.526286 89.2466192,124 89.2466192,124 C89.6862334,122.804408 89.6040269,118.907902 89,112.31048 L95.195907,111.455676 C96.0864515,113.936249 96.8767219,115.533606 97.5667182,116.247746 C98.2567145,116.961887 99.510033,117.479628 101.326674,117.80097 Z"
                id="atb-L" stroke="#000000" stroke-width="1.5" fill="#B57A7A"
                fill-rule="nonzero"></path>
            <path
                d="M300,88.4679502 C309.277877,94.06391 313.330691,102.907926 312.15844,115 C313.514966,114.490328 321.232193,109.348802 322,105.123934 C321.620494,103.391918 321.128952,86.1261275 320.624404,84.7164223 C320.231492,83.6186234 319.532661,83.158205 317.606629,78.350537 C317.296004,77.575171 315.71271,75.2567916 314.802846,73.2050308 C314.109813,71.6422289 314.184128,70.0863579 314.05333,69.5837691 C314.05333,69.371597 313.093939,68.1770072 311.175161,66 L300,88.4679502 Z"
                id="eksedam-LB" stroke="#000000" stroke-width="1.5" fill="#EB7A7A"
                fill-rule="nonzero"></path>
            <path
                d="M11.3789005,63.107289 C10.2915802,63.6526326 9.54843837,64.6867515 9.3731265,65.8778633 C9.18492407,67.1592301 9.04892846,68.5753439 9.01090124,70.1084076 C8.93355778,73.2069508 9.27838076,75.8866345 9.70892606,78 C14.7008025,76.0735006 19.8673464,73.9448809 25.1776202,71.5912593 C27.5694669,70.5310807 29.9071733,69.4620038 32.1894503,68.388478 C36.4768566,66.3710879 40.5006506,63.8522106 44.1332156,60.8343883 C44.1525516,60.8178629 44.1718875,60.8019729 44.1912233,60.7860828 C47.3429696,58.1661456 50.2755763,55.5589199 53,53 C51.6245753,53.1690693 49.5575711,53.4156816 47.0381074,53.6883534 C43.46355,54.0760684 24.1334834,56.7106246 11.3789005,63.107289"
                id="light-spot-LF" fill="#827762" fill-rule="nonzero"></path>
        </g>
    </g>
</svg>